HIERARCHY
ROOT Hips
{
	OFFSET 53.205700 -9.940206 95.647202
	CHANNELS 6 Xposition Yposition Zposition Xrotation Yrotation Zrotation
	JOINT spine
	{
		OFFSET 0.000000 -0.458069 7.965683
		CHANNELS 3 Xrotation Yrotation Zrotation
		JOINT spine1
		{
			OFFSET 0.000000 -0.000001 10.243103
			CHANNELS 3 Xrotation Yrotation Zrotation
			JOINT spine2
			{
				OFFSET 0.000000 -0.000002 9.814751
				CHANNELS 3 Xrotation Yrotation Zrotation
				JOINT Neck
				{
					OFFSET 0.000000 -1.201384 25.198601
					CHANNELS 3 Xrotation Yrotation Zrotation
					JOINT Head
					{
						OFFSET 0.000000 -0.000002 7.613144
						CHANNELS 3 Xrotation Yrotation Zrotation
						End Site
						{
							OFFSET 0.000000 6.077327 18.428101
						}
					}
				}
				JOINT RightShoulder
				{
					OFFSET -4.132702 0.575449 10.599205
					CHANNELS 3 Xrotation Yrotation Zrotation
					JOINT RightArm
					{
						OFFSET 0.000000 -0.000002 13.901794
						CHANNELS 3 Xrotation Yrotation Zrotation
						JOINT RightArmRoll
						{
							OFFSET 0.000000 -0.000002 7.017883
							CHANNELS 3 Xrotation Yrotation Zrotation
							JOINT RightForeArm
							{
								OFFSET 0.000000 -0.000003 20.440598
								CHANNELS 3 Xrotation Yrotation Zrotation
								JOINT RightForeArmRoll
								{
									OFFSET 0.000000 -0.000001 7.875153
									CHANNELS 3 Xrotation Yrotation Zrotation
									JOINT RightHand
									{
										OFFSET 0.000000 -0.000003 15.803696
										CHANNELS 3 Xrotation Yrotation Zrotation
										End Site
										{
											OFFSET 0.000000 0.000000 0.100006
										}
									}
								}
							}
						}
					}
				}
				JOINT LeftShoulder
				{
					OFFSET 4.132702 0.575449 10.599205
					CHANNELS 3 Xrotation Yrotation Zrotation
					JOINT LeftArm
					{
						OFFSET 0.000000 -0.000002 13.901794
						CHANNELS 3 Xrotation Yrotation Zrotation
						JOINT LeftArmRoll
						{
							OFFSET 0.000000 -0.000002 7.017883
							CHANNELS 3 Xrotation Yrotation Zrotation
							JOINT LeftForeArm
							{
								OFFSET 0.000000 -0.000003 20.440598
								CHANNELS 3 Xrotation Yrotation Zrotation
								JOINT LeftForeArmRoll
								{
									OFFSET 0.000000 -0.000001 7.875153
									CHANNELS 3 Xrotation Yrotation Zrotation
									JOINT LeftHand
									{
										OFFSET 0.000000 -0.000003 15.803696
										CHANNELS 3 Xrotation Yrotation Zrotation
										End Site
										{
											OFFSET 0.000000 0.000000 0.100006
										}
									}
								}
							}
						}
					}
				}
			}
		}
	}
	JOINT RightUpLeg
	{
		OFFSET -7.060482 1.086100 -1.294701
		CHANNELS 3 Xrotation Yrotation Zrotation
		JOINT RightUpLegRoll
		{
			OFFSET 0.000000 -0.000003 18.530800
			CHANNELS 3 Xrotation Yrotation Zrotation
			JOINT RightLeg
			{
				OFFSET 0.000000 0.000004 -22.947601
				CHANNELS 3 Xrotation Yrotation Zrotation
				JOINT RightLegRoll
				{
					OFFSET 0.000000 -0.000004 23.022598
					CHANNELS 3 Xrotation Yrotation Zrotation
					JOINT RightFoot
					{
						OFFSET 0.000000 -0.000004 19.162506
						CHANNELS 3 Xrotation Yrotation Zrotation
						JOINT RightToeBase
						{
							OFFSET 0.000000 -0.000002 16.018799
							CHANNELS 3 Xrotation Yrotation Zrotation
							End Site
							{
								OFFSET 0.006790 0.894206 7.757828
							}
						}
					}
				}
			}
		}
	}
	JOINT LeftUpLeg
	{
		OFFSET 7.060482 1.086100 -1.294701
		CHANNELS 3 Xrotation Yrotation Zrotation
		JOINT LeftUpLegRoll
		{
			OFFSET 0.000000 -0.000003 18.530899
			CHANNELS 3 Xrotation Yrotation Zrotation
			JOINT LeftLeg
			{
				OFFSET 0.000000 -0.000004 22.947502
				CHANNELS 3 Xrotation Yrotation Zrotation
				JOINT LeftLegRoll
				{
					OFFSET 0.000000 -0.000004 23.235504
					CHANNELS 3 Xrotation Yrotation Zrotation
					JOINT LeftFoot
					{
						OFFSET 0.000000 -0.000003 18.949600
						CHANNELS 3 Xrotation Yrotation Zrotation
						JOINT LeftToeBase
						{
							OFFSET 0.000000 -0.000003 16.018799
							CHANNELS 3 Xrotation Yrotation Zrotation
							End Site
							{
								OFFSET -0.030430 0.894205 7.757828
							}
						}
					}
				}
			}
		}
	}
}
MOTION
Frames: 9
Frame Time: 0.041667
53.125896 -7.479333 95.670097 -1.150650 -0.009352 0.645105 -2.271588 -0.130184 0.052144 -0.540261 -0.251480 0.088733 1.104820 -0.250532 0.091720 22.890121 3.569331 -0.691326 -1.986858 -3.457045 -0.242675 12.870094 -70.618446 12.722314 -47.916485 -111.879612 -21.669313 -0.000000 0.000000 -0.000002 -0.003074 -0.417065 0.039045 -0.000000 0.000002 -3.030178 -5.000174 -8.000029 0.000006 2.428007 78.105918 -0.367847 -70.824670 111.166048 37.811944 0.000001 0.000000 0.000002 -0.041809 -8.500281 -1.054541 0.000003 -0.000018 3.007001 -5.000162 8.000508 0.000049 0.198454 -174.310034 -1.550744 179.999991 -0.000005 -1.165007 174.139170 -1.985570 -0.661776 -0.000006 0.000000 0.088087 69.544228 6.951978 1.925543 25.456861 -7.355621 -0.000003 -1.418717 173.643940 0.448356 -0.000020 -0.000005 -1.117300 -5.868289 1.932238 0.333917 -0.000004 0.000000 -0.000533 68.645232 -6.642092 -2.785977 25.456948 7.355613 -0.000000 
53.114098 -7.492788 95.671906 -1.181351 -0.006645 0.631820 -2.265106 -0.130449 0.053391 -0.527289 -0.251457 0.092092 1.117791 -0.250460 0.095080 22.889572 3.559942 -0.687644 -1.988851 -3.448556 -0.240236 12.879939 -70.646825 12.727936 -48.028067 -111.849300 -21.672221 0.000001 -0.000000 -0.000000 -0.003212 -0.321603 0.045840 0.000002 0.000003 -3.030188 -5.000175 -8.000028 0.000008 2.356361 78.073406 -0.295588 -70.640180 111.125634 37.723237 -0.000001 -0.000000 0.000000 -0.035177 -8.381561 -1.044955 0.000004 -0.000017 3.007001 -5.000161 8.000507 0.000050 0.225951 -174.309037 -1.538894 179.999991 -0.000004 -1.165007 174.128515 -1.992504 -0.662861 -0.000006 0.000000 0.088316 69.541585 6.951978 1.925509 25.456858 -7.355621 -0.000003 -1.376989 173.639828 0.439389 -0.000020 -0.000004 -1.117470 -5.865387 1.932099 0.333908 -0.000004 0.000000 -0.000531 68.646857 -6.641892 -2.787042 25.456947 7.355613 -0.000001 
53.117294 -7.494796 95.672691 -1.212521 -0.003925 0.618852 -2.258577 -0.130663 0.054645 -0.514223 -0.251271 0.095498 1.130861 -0.250223 0.098485 22.890271 3.548179 -0.683965 -1.991916 -3.438415 -0.238041 12.889690 -70.676427 12.733236 -48.142387 -111.819998 -21.679615 0.000001 0.000001 0.000001 -0.003319 -0.227378 0.052415 0.000000 0.000002 -3.030220 -5.000177 -8.000028 0.000009 2.287952 78.039829 -0.226875 -70.452486 111.086852 37.627983 0.000001 -0.000000 -0.000001 -0.032291 -8.267529 -1.036188 0.000003 -0.000019 3.007001 -5.000162 8.000506 0.000051 0.253688 -174.309050 -1.526364 179.999991 -0.000005 -1.165007 174.117067 -1.999419 -0.663975 -0.000006 -0.000000 0.088566 69.538928 6.951946 1.925570 25.456860 -7.355620 -0.000003 -1.334882 173.635717 0.430408 -0.000020 -0.000004 -1.117620 -5.862594 1.931861 0.333917 -0.000004 0.000001 -0.000527 68.648558 -6.641631 -2.788289 25.456943 7.355612 0.000001 
53.120995 -7.479651 95.669594 -1.244010 -0.001192 0.606107 -2.252006 -0.130841 0.055904 -0.501090 -0.250968 0.098937 1.143991 -0.249870 0.101921 22.891823 3.534753 -0.680285 -1.995744 -3.427125 -0.236015 12.899301 -70.706856 12.738229 -48.258517 -111.791373 -21.690207 -0.000001 0.000000 -0.000001 -0.003400 -0.134022 0.058828 0.000003 0.000002 -3.030249 -5.000174 -8.000029 0.000004 2.221909 78.005446 -0.160743 -70.262211 111.049204 37.527897 0.000001 0.000000 0.000002 -0.032032 -8.156780 -1.027955 0.000002 -0.000018 3.007003 -5.000162 8.000507 0.000051 0.281588 -174.308067 -1.513342 179.999991 -0.000005 -1.166004 174.105115 -2.007340 -0.665214 -0.000006 0.000000 0.088829 69.536182 6.951980 1.925449 25.456861 -7.355620 -0.000002 -1.292502 173.631605 0.421415 -0.000020 -0.000004 -1.117740 -5.859901 1.931551 0.333938 -0.000004 0.000000 -0.000523 68.650149 -6.641320 -2.789835 25.456950 7.355613 -0.000000 
53.119297 -7.488390 95.669197 -1.275681 0.001553 0.593490 -2.245427 -0.130998 0.057166 -0.487920 -0.250599 0.102394 1.157161 -0.249449 0.105376 22.893852 3.520374 -0.676603 -1.999991 -3.415173 -0.234086 12.908914 -70.737804 12.743122 -48.375856 -111.763198 -21.702663 -0.000000 0.000001 -0.000001 -0.003476 -0.041163 0.065157 0.000001 0.000002 -3.030280 -5.000172 -8.000029 0.000006 2.157360 77.970523 -0.096247 -70.069941 111.012185 37.424430 0.000001 -0.000000 0.000003 -0.033272 -8.047901 -1.020026 0.000002 -0.000019 3.007003 -5.000161 8.000508 0.000052 0.309584 -174.308081 -1.500056 179.999991 -0.000005 -1.166004 174.092848 -2.015258 -0.666467 -0.000006 0.000000 0.089100 69.533423 6.951979 1.925522 25.456858 -7.355619 -0.000003 -1.249981 173.626496 0.412438 -0.000020 -0.000005 -1.117850 -5.857249 1.931213 0.333967 -0.000004 0.000001 -0.000517 68.651843 -6.640982 -2.791370 25.456948 7.355613 -0.000001 
53.125698 -7.535781 95.671402 -1.307400 0.004313 0.580907 -2.238836 -0.131150 0.058429 -0.474741 -0.250211 0.105856 1.170341 -0.249010 0.108835 22.895976 3.505764 -0.672920 -2.004342 -3.403061 -0.232178 12.918528 -70.768854 12.748001 -48.493517 -111.735126 -21.715751 0.000000 0.000000 -0.000001 -0.003551 0.051574 0.071457 0.000000 0.000002 -3.030311 -5.000178 -8.000028 0.000007 2.093464 77.935477 -0.032444 -69.877200 110.975377 37.320171 0.000000 -0.000000 0.000001 -0.034885 -7.939500 -1.012179 0.000002 -0.000018 3.007002 -5.000162 8.000510 0.000052 0.337606 -174.307111 -1.486691 179.999991 -0.000005 -1.166004 174.080499 -2.023161 -0.667726 -0.000006 0.000000 0.089374 69.530766 6.951944 1.925583 25.456861 -7.355620 -0.000003 -1.207407 173.622411 0.403428 -0.000020 -0.000005 -1.117960 -5.854617 1.930853 0.333997 -0.000004 0.000000 -0.000512 68.653510 -6.640613 -2.792899 25.456943 7.355613 -0.000000 
53.123997 -7.530721 95.671089 -1.339027 0.007087 0.568267 -2.232258 -0.131311 0.059691 -0.461580 -0.249855 0.109309 1.183511 -0.248603 0.112285 22.897917 3.491629 -0.669239 -2.008493 -3.391280 -0.230221 12.928233 -70.799692 12.753017 -48.610934 -111.706924 -21.728129 0.000001 -0.000000 -0.000001 -0.003622 0.144558 0.077805 0.000001 0.000002 -3.030341 -5.000174 -8.000029 0.000006 2.029380 77.900732 0.031606 -69.684780 110.938234 37.216919 -0.000001 -0.000001 0.000001 -0.035750 -7.830152 -1.004172 0.000003 -0.000018 3.007001 -5.000161 8.000509 0.000051 0.365579 -174.306113 -1.473460 179.999991 -0.000005 -1.167001 174.068300 -2.031078 -0.668983 -0.000006 0.000000 0.089643 69.528034 6.951977 1.925559 25.456856 -7.355619 -0.000003 -1.164915 173.618313 0.394416 -0.000020 -0.000005 -1.118070 -5.851953 1.930514 0.334023 -0.000004 0.000001 -0.000507 68.655101 -6.640301 -2.794445 25.456953 7.355613 0.000000 
53.100895 -7.573188 95.675201 -1.370432 0.009876 0.555471 -2.225706 -0.131498 0.060949 -0.448465 -0.249579 0.112737 1.196621 -0.248275 0.115712 22.899186 3.478682 -0.665555 -2.012095 -3.380319 -0.228141 12.938053 -70.829909 12.758257 -48.727157 -111.678244 -21.738426 -0.000000 0.000000 0.000000 -0.003714 0.238162 0.084268 -0.000001 0.000002 -3.030369 -5.000177 -8.000028 0.000006 1.964240 77.866479 0.096859 -69.493596 110.900306 37.116597 -0.000002 -0.000001 -0.000000 -0.034737 -7.718463 -0.995796 0.000003 -0.000018 3.006992 -5.000163 8.000507 0.000053 0.393436 -174.306141 -1.460587 179.999991 -0.000005 -1.167001 174.056484 -2.038984 -0.670229 -0.000006 0.000000 0.089902 69.525370 6.951942 1.925520 25.456856 -7.355619 -0.000003 -1.122611 173.613218 0.385421 -0.000020 -0.000005 -1.118200 -5.849231 1.930225 0.334041 -0.000004 0.000001 -0.000503 68.656795 -6.640000 -2.795786 25.456948 7.355613 0.000000 
53.106094 -7.577421 95.673897 -1.401461 0.012681 0.542428 -2.219186 -0.131725 0.062201 -0.435427 -0.249432 0.116128 1.209662 -0.248078 0.119102 22.899505 3.467630 -0.661871 -2.014841 -3.370679 -0.225866 12.947985 -70.859108 12.763796 -48.841464 -111.648786 -21.745383 0.000001 0.000001 -0.000001 -0.003833 0.332758 0.090909 0.000002 0.000002 -3.030389 -5.000174 -8.000031 0.000006 1.897201 77.833127 0.164246 -69.304673 110.861005 37.021070 0.000002 0.000000 0.000002 -0.030740 -7.603023 -0.986831 0.000002 -0.000019 3.006990 -5.000161 8.000508 0.000052 0.421099 -174.306154 -1.448261 179.999991 -0.000005 -1.167001 174.045269 -2.045913 -0.671354 -0.000006 0.000000 0.090146 69.522631 6.951975 1.925499 25.456856 -7.355620 -0.000001 -1.080621 173.609120 0.376408 -0.000020 -0.000004 -1.118360 -5.846408 1.930016 0.334045 -0.000004 0.000000 -0.000499 68.658407 -6.639765 -2.797045 25.456947 7.355612 0.000000 
